<svg xmlns="http://www.w3.org/2000/svg" version="1.1" xmlns:xlink="http://www.w3.org/1999/xlink" xmlns:svgjs="http://svgjs.dev/svgjs" width="1000" height="297" viewBox="0 0 1000 297"><g transform="matrix(1,0,0,1,0.16994382022460286,0.5044158491550377)"><svg viewBox="0 0 356 106" data-background-color="#fafafa" preserveAspectRatio="xMidYMid meet" height="297" width="1000" xmlns="http://www.w3.org/2000/svg" xmlns:xlink="http://www.w3.org/1999/xlink"><g id="tight-bounds" transform="matrix(1,0,0,1,-0.06049999999996203,-0.1800272054223342)"><svg viewBox="0 0 356.12052 106.36005441084464" height="106.36005441084464" width="356.12052"><g><svg viewBox="0 0 356.12052 106.36005441084464" height="106.36005441084464" width="356.12052"><g><svg viewBox="0 0 356.12052 106.36005441084464" height="106.36005441084464" width="356.12052"><g><path d="M0 106.36v-106.36h356.121v106.36z" fill="#130912" stroke="transparent" stroke-width="0" rx="0%" data-fill-palette-color="tertiary"></path><path d="M3.283 103.077v-99.794h349.554v99.794z" fill="#fafafa" stroke="transparent" stroke-width="0" rx="0%" data-fill-palette-color="quaternary"></path><path d="M9.85 96.51v-86.66h336.421v86.66z" fill="#130912" stroke="transparent" stroke-width="0" data-fill-palette-color="tertiary"></path></g><g transform="matrix(1,0,0,1,19.69974,19.69974)" id="textblocktransform"><svg viewBox="0 0 316.72104 66.96057441084464" height="66.96057441084464" width="316.72104" id="textblock"><g><svg viewBox="0 0 316.72104 66.96057441084464" height="66.96057441084464" width="316.72104"><g transform="matrix(1,0,0,1,0,0)"><svg width="316.72104" viewBox="2.75 -35.29999923706055 191.7899932861328 40.54999923706055" height="66.96057441084464" data-palette-color="#fafafa"><path d="M29.3-6.8L30.7-4Q28.55-1.95 24.98-0.83 21.4 0.3 17.05 0.3L17.05 0.3Q12.45 0.3 9.22-0.95 6-2.2 4.38-4.4 2.75-6.6 2.75-9.45L2.75-9.45Q2.75-12.6 4.63-14.8 6.5-17 9.55-17.85L9.55-17.85Q7.05-18.8 5.65-20.88 4.25-22.95 4.25-25.75L4.25-25.75Q4.25-28.4 5.78-30.58 7.3-32.75 10.38-34.02 13.45-35.3 17.8-35.3L17.8-35.3Q21-35.3 24.03-34.58 27.05-33.85 29.2-32.5L29.2-32.5 28.05-29.55Q23.45-32.15 17.95-32.15L17.95-32.15Q13.1-32.15 10.53-30.3 7.95-28.45 7.95-25.5L7.95-25.5Q7.95-22.55 10.03-20.95 12.1-19.35 15.9-19.35L15.9-19.35 24.6-19.35 24.6-16.15 15.75-16.15Q11.45-16.15 8.95-14.53 6.45-12.9 6.45-9.7L6.45-9.7Q6.45-6.55 9.18-4.7 11.9-2.85 17.2-2.85L17.2-2.85Q20.9-2.85 24.1-3.9 27.3-4.95 29.3-6.8L29.3-6.8ZM39.15-3.2L62.9-3.2 62.9 0 34.2 0 34.2-2.35 45.1-16.25 37.35-16.25 37.35-19.35 47.5-19.35 57.25-31.8 34.35-31.8 34.35-35 62.15-35 62.15-32.7 51.7-19.3 58.95-19.3 58.95-16.2 49.3-16.2 39.15-3.2ZM67-12L67-15.1 80.09-15.1 80.09-12 67-12ZM110.84-18.05Q114.29-17.3 116.17-15.08 118.04-12.85 118.04-9.35L118.04-9.35Q118.04-4.85 114.72-2.43 111.39 0 104.89 0L104.89 0 88.79 0 88.79-35 103.89-35Q109.74-35 112.97-32.65 116.19-30.3 116.19-26L116.19-26Q116.19-23.1 114.77-21.08 113.34-19.05 110.84-18.05L110.84-18.05ZM103.64-31.95L92.49-31.95 92.49-19.25 103.64-19.25Q107.89-19.25 110.19-20.88 112.49-22.5 112.49-25.6L112.49-25.6Q112.49-28.7 110.19-30.33 107.89-31.95 103.64-31.95L103.64-31.95ZM104.84-3.05Q109.54-3.05 111.94-4.65 114.34-6.25 114.34-9.65L114.34-9.65Q114.34-16.2 104.84-16.2L104.84-16.2 92.49-16.2 92.49-3.05 104.84-3.05ZM151.14-35L154.84-35 154.84 0 151.29 0 151.29-5.9Q147.84 0.3 139.54 0.3L139.54 0.3Q133.29 0.3 129.74-3.45 126.19-7.2 126.19-14.15L126.19-14.15 126.19-35 129.89-35 129.89-14.25Q129.89-8.7 132.62-5.85 135.34-3 140.24-3L140.24-3Q145.39-3 148.27-6.03 151.14-9.05 151.14-15.1L151.14-15.1 151.14-35ZM190.84-35L194.54-35 194.54-10.15Q194.54-2.65 190.64 1.3 186.74 5.25 179.84 5.25L179.84 5.25Q175.54 5.25 172.11 3.88 168.69 2.5 166.39-0.1L166.39-0.1 168.09-2.95Q172.54 1.95 179.84 1.95L179.84 1.95Q185.24 1.95 188.04-1.05 190.84-4.05 190.84-10.05L190.84-10.05 190.84-14.75Q187.44-8.8 179.49-8.8L179.49-8.8Q172.99-8.8 169.34-12.53 165.69-16.25 165.69-23.25L165.69-23.25 165.69-35 169.39-35 169.39-23.4Q169.39-17.85 172.14-14.98 174.89-12.1 179.84-12.1L179.84-12.1Q185.04-12.1 187.94-15.13 190.84-18.15 190.84-24.2L190.84-24.2 190.84-35Z" opacity="1" transform="matrix(1,0,0,1,0,0)" fill="#fafafa" class="undefined-text-0" data-fill-palette-color="quaternary" id="text-0"></path></svg></g></svg></g></svg></g></svg></g><g></g></svg></g><defs></defs></svg><rect width="356.12052" height="106.36005441084464" fill="none" stroke="none" visibility="hidden"></rect></g></svg></g></svg>